<?xml version="1.0" ?>
<svg id="Layer_1" style="enable-background:new 0 0 49 49;" version="1.1" viewBox="0 0 49 49"
    xml:space="preserve" xmlns="http://www.w3.org/2000/svg"><g><path d="M37.92,5.9V3h3.7V1H7.37v2h3.7v2.9c0,3.53,1.37,6.84,3.87,9.34l8.14,8.14l-8.14,8.14c-2.5,2.49-3.87,5.81-3.87,9.34V46   h-3.7v2h34.25v-2h-3.7v-5.14c0-3.53-1.37-6.85-3.87-9.34l-8.14-8.14l8.14-8.14C36.55,12.74,37.92,9.43,37.92,5.9z M32.64,32.94   c2.12,2.12,3.28,4.93,3.28,7.93V46H13.08v-5.14c0-2.99,1.17-5.81,3.28-7.93l8.14-8.14L32.64,32.94z M24.5,21.97l-8.14-8.14   c-2.12-2.12-3.28-4.93-3.28-7.92V3h22.85v2.9c0,2.99-1.17,5.81-3.28,7.92L24.5,21.97z"/><path d="M23.71,31.18l-7.64,9.9c-0.23,0.3-0.27,0.71-0.11,1.05s0.52,0.56,0.9,0.56h15.28c0.38,0,0.73-0.22,0.9-0.56   s0.13-0.75-0.11-1.05l-7.64-9.9C24.91,30.69,24.09,30.69,23.71,31.18z M30.11,40.69H18.89l5.61-7.26L30.11,40.69z"/><path d="M32.14,6.31H16.86c-0.38,0-0.73,0.22-0.9,0.56s-0.13,0.75,0.11,1.05l7.64,9.9c0.19,0.25,0.48,0.39,0.79,0.39   s0.6-0.14,0.79-0.39l7.64-9.9c0.23-0.3,0.27-0.71,0.11-1.05S32.52,6.31,32.14,6.31z M24.5,15.57l-5.61-7.26h11.21L24.5,15.57z"/></g></svg>